<svg width="154" height="154" viewBox="0 0 154 154" fill="none" xmlns="http://www.w3.org/2000/svg">
<path d="M139.562 28.875V52.9375C139.562 54.2139 139.055 55.4379 138.153 56.3405C137.25 57.243 136.026 57.75 134.75 57.75C133.474 57.75 132.25 57.243 131.347 56.3405C130.445 55.4379 129.938 54.2139 129.938 52.9375V33.6875H110.688C109.411 33.6875 108.187 33.1805 107.285 32.278C106.382 31.3754 105.875 30.1514 105.875 28.875C105.875 27.5986 106.382 26.3746 107.285 25.472C108.187 24.5695 109.411 24.0625 110.688 24.0625H134.75C136.026 24.0625 137.25 24.5695 138.153 25.472C139.055 26.3746 139.562 27.5986 139.562 28.875ZM43.3125 120.312H24.0625V101.062C24.0625 99.7861 23.5555 98.5621 22.653 97.6595C21.7504 96.757 20.5264 96.25 19.25 96.25C17.9736 96.25 16.7496 96.757 15.847 97.6595C14.9445 98.5621 14.4375 99.7861 14.4375 101.062V125.125C14.4375 126.401 14.9445 127.625 15.847 128.528C16.7496 129.43 17.9736 129.938 19.25 129.938H43.3125C44.5889 129.938 45.8129 129.43 46.7155 128.528C47.618 127.625 48.125 126.401 48.125 125.125C48.125 123.849 47.618 122.625 46.7155 121.722C45.8129 120.82 44.5889 120.312 43.3125 120.312ZM134.75 96.25C133.474 96.25 132.25 96.757 131.347 97.6595C130.445 98.5621 129.938 99.7861 129.938 101.062V120.312H110.688C109.411 120.312 108.187 120.82 107.285 121.722C106.382 122.625 105.875 123.849 105.875 125.125C105.875 126.401 106.382 127.625 107.285 128.528C108.187 129.43 109.411 129.938 110.688 129.938H134.75C136.026 129.938 137.25 129.43 138.153 128.528C139.055 127.625 139.562 126.401 139.562 125.125V101.062C139.562 99.7861 139.055 98.5621 138.153 97.6595C137.25 96.757 136.026 96.25 134.75 96.25ZM19.25 57.75C20.5264 57.75 21.7504 57.243 22.653 56.3405C23.5555 55.4379 24.0625 54.2139 24.0625 52.9375V33.6875H43.3125C44.5889 33.6875 45.8129 33.1805 46.7155 32.278C47.618 31.3754 48.125 30.1514 48.125 28.875C48.125 27.5986 47.618 26.3746 46.7155 25.472C45.8129 24.5695 44.5889 24.0625 43.3125 24.0625H19.25C17.9736 24.0625 16.7496 24.5695 15.847 25.472C14.9445 26.3746 14.4375 27.5986 14.4375 28.875V52.9375C14.4375 54.2139 14.9445 55.4379 15.847 56.3405C16.7496 57.243 17.9736 57.75 19.25 57.75ZM48.125 48.125C46.8486 48.125 45.6246 48.632 44.722 49.5345C43.8195 50.4371 43.3125 51.6611 43.3125 52.9375V101.062C43.3125 102.339 43.8195 103.563 44.722 104.465C45.6246 105.368 46.8486 105.875 48.125 105.875C49.4014 105.875 50.6254 105.368 51.528 104.465C52.4305 103.563 52.9375 102.339 52.9375 101.062V52.9375C52.9375 51.6611 52.4305 50.4371 51.528 49.5345C50.6254 48.632 49.4014 48.125 48.125 48.125ZM110.688 101.062V52.9375C110.688 51.6611 110.18 50.4371 109.278 49.5345C108.375 48.632 107.151 48.125 105.875 48.125C104.599 48.125 103.375 48.632 102.472 49.5345C101.57 50.4371 101.062 51.6611 101.062 52.9375V101.062C101.062 102.339 101.57 103.563 102.472 104.465C103.375 105.368 104.599 105.875 105.875 105.875C107.151 105.875 108.375 105.368 109.278 104.465C110.18 103.563 110.688 102.339 110.688 101.062ZM86.625 48.125C85.3486 48.125 84.1246 48.632 83.222 49.5345C82.3195 50.4371 81.8125 51.6611 81.8125 52.9375V101.062C81.8125 102.339 82.3195 103.563 83.222 104.465C84.1246 105.368 85.3486 105.875 86.625 105.875C87.9014 105.875 89.1254 105.368 90.028 104.465C90.9305 103.563 91.4375 102.339 91.4375 101.062V52.9375C91.4375 51.6611 90.9305 50.4371 90.028 49.5345C89.1254 48.632 87.9014 48.125 86.625 48.125ZM67.375 48.125C66.0986 48.125 64.8746 48.632 63.972 49.5345C63.0695 50.4371 62.5625 51.6611 62.5625 52.9375V101.062C62.5625 102.339 63.0695 103.563 63.972 104.465C64.8746 105.368 66.0986 105.875 67.375 105.875C68.6514 105.875 69.8754 105.368 70.778 104.465C71.6805 103.563 72.1875 102.339 72.1875 101.062V52.9375C72.1875 51.6611 71.6805 50.4371 70.778 49.5345C69.8754 48.632 68.6514 48.125 67.375 48.125Z" fill="white"/>
</svg>
