<svg width="33" height="33" viewBox="0 0 33 33" fill="none" xmlns="http://www.w3.org/2000/svg">
<circle cx="16.5" cy="16.5" r="16.5" fill="white"/>
<path d="M23.7188 7.02539C23.0742 6.96094 22.5586 7.47657 22.5586 8.1211C22.5586 8.44336 22.6875 8.83008 22.9453 9.02344L21.8496 10.1191L22.9453 11.1504L23.9766 10.0547C24.2344 10.3125 24.5566 10.4414 24.8789 10.4414C25.5234 10.4414 26.0391 9.92579 25.9746 9.28125C26.0391 8.63672 25.5234 8.1211 24.8789 8.1211C24.8789 7.47657 24.3633 6.96094 23.7188 7.02539ZM22.6875 21.5918L21.5918 22.6231L22.9453 23.9766C22.6875 24.2344 22.5586 24.5566 22.5586 24.8789C22.5586 25.5234 23.0742 26.0391 23.7188 25.9746C24.3633 26.0391 24.8789 25.5234 24.8789 24.8789C25.5234 24.8789 26.0391 24.3633 25.9746 23.7188C26.0391 23.0742 25.5234 22.5586 24.8789 22.5586C24.5566 22.5586 24.2344 22.6875 23.9766 22.9453L22.6875 21.5918ZM16.5 9.66797C12.6973 9.66797 9.66797 12.7617 9.66797 16.5V19.1426C9.66797 19.1426 10.5703 19.6582 11.9883 21.0117C13.3418 22.4297 13.8574 23.332 13.8574 23.332H19.1426C19.1426 23.332 19.6582 22.4297 21.0117 21.0117C22.4297 19.6582 23.332 19.1426 23.332 19.1426V16.5C23.332 12.7617 20.3027 9.66797 16.5 9.66797Z" fill="black"/>
<circle cx="13.2773" cy="17.2541" r="2.2752" fill="white"/>
<circle cx="19.7226" cy="17.2541" r="2.2752" fill="white"/>
<path d="M9.28124 7.02539C9.92577 6.96094 10.4414 7.47657 10.4414 8.1211C10.4414 8.44336 10.3125 8.83008 10.0547 9.02344L11.1504 10.1191L10.0547 11.1504L9.02343 10.0547C8.76561 10.3125 8.44335 10.4414 8.12108 10.4414C7.47655 10.4414 6.96093 9.92579 7.02538 9.28125C6.96093 8.63672 7.47655 8.1211 8.12108 8.1211C8.12108 7.47657 8.63671 6.96094 9.28124 7.02539ZM10.3125 21.5918L11.4082 22.6231L10.0547 23.9766C10.3125 24.2344 10.4414 24.5566 10.4414 24.8789C10.4414 25.5234 9.92577 26.0391 9.28124 25.9746C8.63671 26.0391 8.12108 25.5234 8.12108 24.8789C7.47655 24.8789 6.96093 24.3633 7.02538 23.7188C6.96093 23.0742 7.47655 22.5586 8.12108 22.5586C8.44335 22.5586 8.76561 22.6875 9.02343 22.9453L10.3125 21.5918Z" fill="black"/>
<path d="M16.5 18.8848C16.4087 18.884 16.3188 18.9074 16.2396 18.9527C16.1603 18.998 16.0945 19.0635 16.0488 19.1426L15.2109 20.4316C15.1655 20.5104 15.1416 20.5997 15.1418 20.6906C15.142 20.7815 15.1663 20.8708 15.2121 20.9493C15.2579 21.0278 15.3236 21.0928 15.4027 21.1378C15.4817 21.1827 15.5712 21.2059 15.6621 21.2051H17.3379C17.4288 21.2059 17.5183 21.1827 17.5973 21.1378C17.6764 21.0928 17.7421 21.0278 17.7879 20.9493C17.8337 20.8708 17.858 20.7815 17.8582 20.6906C17.8584 20.5997 17.8345 20.5104 17.7891 20.4316L16.9512 19.1426C16.9055 19.0635 16.8397 18.998 16.7604 18.9527C16.6812 18.9074 16.5913 18.884 16.5 18.8848Z" fill="white"/>
</svg>
