<svg width="204" height="53" viewBox="0 0 204 53" fill="none" xmlns="http://www.w3.org/2000/svg">
<path d="M67.5631 34V22.296H69.6971L69.7851 25.398L69.5871 25.332C69.7484 24.276 70.0711 23.506 70.5551 23.022C71.0538 22.538 71.7211 22.296 72.5571 22.296H73.6791V24.386H72.5571C71.9704 24.386 71.4791 24.4813 71.0831 24.672C70.6871 24.8627 70.3864 25.156 70.1811 25.552C69.9904 25.948 69.8951 26.4613 69.8951 27.092V34H67.5631ZM78.6614 34.264C77.4441 34.264 76.4687 33.9853 75.7354 33.428C75.0167 32.8707 74.6574 32.086 74.6574 31.074C74.6574 30.062 74.9581 29.2773 75.5594 28.72C76.1754 28.148 77.1214 27.7373 78.3974 27.488L82.4234 26.718C82.4234 25.8087 82.2107 25.134 81.7854 24.694C81.3601 24.2393 80.7294 24.012 79.8934 24.012C79.1454 24.012 78.5587 24.1807 78.1334 24.518C77.7081 24.8407 77.4147 25.3247 77.2534 25.97L74.8554 25.816C75.0754 24.6427 75.6181 23.7187 76.4834 23.044C77.3634 22.3693 78.5001 22.032 79.8934 22.032C81.4774 22.032 82.6801 22.4573 83.5014 23.308C84.3374 24.144 84.7554 25.3247 84.7554 26.85V31.404C84.7554 31.6827 84.7994 31.8807 84.8874 31.998C84.9901 32.1007 85.1514 32.152 85.3714 32.152H85.7894V34C85.7161 34.0147 85.5987 34.0293 85.4374 34.044C85.2761 34.0587 85.1074 34.066 84.9314 34.066C84.4327 34.066 84.0001 33.9853 83.6334 33.824C83.2814 33.6627 83.0174 33.3987 82.8414 33.032C82.6654 32.6507 82.5774 32.1447 82.5774 31.514L82.8194 31.624C82.7021 32.1373 82.4454 32.592 82.0494 32.988C81.6681 33.384 81.1767 33.6993 80.5754 33.934C79.9887 34.154 79.3507 34.264 78.6614 34.264ZM79.0354 32.416C79.7394 32.416 80.3407 32.284 80.8394 32.02C81.3381 31.7413 81.7267 31.36 82.0054 30.876C82.2841 30.392 82.4234 29.842 82.4234 29.226V28.478L78.9914 29.138C78.2874 29.27 77.7887 29.4827 77.4954 29.776C77.2167 30.0547 77.0774 30.414 77.0774 30.854C77.0774 31.3527 77.2461 31.7413 77.5834 32.02C77.9354 32.284 78.4194 32.416 79.0354 32.416ZM87.7584 34V22.296H89.8924L89.9584 25.2L89.6944 25.112C89.8264 24.4667 90.0537 23.9167 90.3764 23.462C90.7137 23.0073 91.1244 22.6553 91.6084 22.406C92.0924 22.1567 92.6204 22.032 93.1924 22.032C94.1897 22.032 95.0037 22.318 95.6344 22.89C96.2651 23.4473 96.6611 24.2173 96.8224 25.2H96.4484C96.5804 24.5107 96.8004 23.9387 97.1084 23.484C97.4311 23.0147 97.8417 22.6553 98.3404 22.406C98.8391 22.1567 99.4037 22.032 100.034 22.032C100.856 22.032 101.552 22.208 102.124 22.56C102.711 22.8973 103.151 23.396 103.444 24.056C103.752 24.716 103.906 25.5227 103.906 26.476V34H101.574V27.048C101.574 26.036 101.391 25.2733 101.024 24.76C100.658 24.2467 100.1 23.99 99.3524 23.99C98.8684 23.99 98.4431 24.1147 98.0764 24.364C97.7097 24.6133 97.4237 24.9727 97.2184 25.442C97.0277 25.9113 96.9324 26.476 96.9324 27.136V34H94.7104V27.136C94.7104 26.1387 94.5417 25.3687 94.2044 24.826C93.8817 24.2687 93.3244 23.99 92.5324 23.99C92.0337 23.99 91.6011 24.1147 91.2344 24.364C90.8824 24.6133 90.6037 24.98 90.3984 25.464C90.1931 25.9333 90.0904 26.4907 90.0904 27.136V34H87.7584ZM111.783 34.264C110.639 34.264 109.649 34.0147 108.813 33.516C107.992 33.0173 107.354 32.306 106.899 31.382C106.459 30.458 106.239 29.38 106.239 28.148C106.239 26.916 106.459 25.8453 106.899 24.936C107.354 24.012 107.992 23.3007 108.813 22.802C109.635 22.2887 110.603 22.032 111.717 22.032C112.773 22.032 113.705 22.2813 114.511 22.78C115.318 23.264 115.941 23.968 116.381 24.892C116.836 25.816 117.063 26.9307 117.063 28.236V28.83H108.659C108.718 29.974 109.019 30.832 109.561 31.404C110.119 31.976 110.867 32.262 111.805 32.262C112.495 32.262 113.067 32.1007 113.521 31.778C113.976 31.4553 114.291 31.0227 114.467 30.48L116.887 30.634C116.579 31.7193 115.971 32.5993 115.061 33.274C114.167 33.934 113.074 34.264 111.783 34.264ZM108.659 27.07H114.599C114.526 26.0287 114.225 25.2587 113.697 24.76C113.184 24.2613 112.524 24.012 111.717 24.012C110.881 24.012 110.192 24.276 109.649 24.804C109.121 25.3173 108.791 26.0727 108.659 27.07ZM119.426 34V22.296H121.56L121.648 25.42L121.362 25.266C121.494 24.5033 121.744 23.8873 122.11 23.418C122.477 22.9487 122.924 22.604 123.452 22.384C123.98 22.1493 124.552 22.032 125.168 22.032C126.048 22.032 126.774 22.23 127.346 22.626C127.933 23.0073 128.373 23.5353 128.666 24.21C128.974 24.87 129.128 25.6253 129.128 26.476V34H126.796V27.18C126.796 26.4907 126.723 25.9113 126.576 25.442C126.43 24.9727 126.188 24.6133 125.85 24.364C125.513 24.1147 125.073 23.99 124.53 23.99C123.709 23.99 123.042 24.2613 122.528 24.804C122.015 25.3467 121.758 26.1387 121.758 27.18V34H119.426ZM137.774 37.3V22.296H139.974L140.04 24.804L139.776 24.672C140.069 23.8067 140.553 23.154 141.228 22.714C141.903 22.2593 142.68 22.032 143.56 22.032C144.704 22.032 145.643 22.318 146.376 22.89C147.124 23.4473 147.674 24.188 148.026 25.112C148.393 26.036 148.576 27.048 148.576 28.148C148.576 29.248 148.393 30.26 148.026 31.184C147.674 32.108 147.124 32.856 146.376 33.428C145.643 33.9853 144.704 34.264 143.56 34.264C142.973 34.264 142.423 34.1613 141.91 33.956C141.397 33.7507 140.957 33.4647 140.59 33.098C140.238 32.7167 139.989 32.2693 139.842 31.756L140.106 31.492V37.3H137.774ZM143.142 32.24C144.081 32.24 144.814 31.8807 145.342 31.162C145.885 30.4433 146.156 29.4387 146.156 28.148C146.156 26.8573 145.885 25.8527 145.342 25.134C144.814 24.4153 144.081 24.056 143.142 24.056C142.526 24.056 141.991 24.21 141.536 24.518C141.081 24.8113 140.729 25.266 140.48 25.882C140.231 26.498 140.106 27.2533 140.106 28.148C140.106 29.0427 140.223 29.798 140.458 30.414C140.707 31.03 141.059 31.492 141.514 31.8C141.983 32.0933 142.526 32.24 143.142 32.24ZM150.944 34V22.296H153.276V34H150.944ZM150.9 20.602V18.27H153.32V20.602H150.9ZM156.766 34V22.296H158.9L158.988 25.398L158.79 25.332C158.952 24.276 159.274 23.506 159.758 23.022C160.257 22.538 160.924 22.296 161.76 22.296H162.882V24.386H161.76C161.174 24.386 160.682 24.4813 160.286 24.672C159.89 24.8627 159.59 25.156 159.384 25.552C159.194 25.948 159.098 26.4613 159.098 27.092V34H156.766ZM167.865 34.264C166.647 34.264 165.672 33.9853 164.939 33.428C164.22 32.8707 163.861 32.086 163.861 31.074C163.861 30.062 164.161 29.2773 164.763 28.72C165.379 28.148 166.325 27.7373 167.601 27.488L171.627 26.718C171.627 25.8087 171.414 25.134 170.989 24.694C170.563 24.2393 169.933 24.012 169.097 24.012C168.349 24.012 167.762 24.1807 167.337 24.518C166.911 24.8407 166.618 25.3247 166.457 25.97L164.059 25.816C164.279 24.6427 164.821 23.7187 165.687 23.044C166.567 22.3693 167.703 22.032 169.097 22.032C170.681 22.032 171.883 22.4573 172.705 23.308C173.541 24.144 173.959 25.3247 173.959 26.85V31.404C173.959 31.6827 174.003 31.8807 174.091 31.998C174.193 32.1007 174.355 32.152 174.575 32.152H174.993V34C174.919 34.0147 174.802 34.0293 174.641 34.044C174.479 34.0587 174.311 34.066 174.135 34.066C173.636 34.066 173.203 33.9853 172.837 33.824C172.485 33.6627 172.221 33.3987 172.045 33.032C171.869 32.6507 171.781 32.1447 171.781 31.514L172.023 31.624C171.905 32.1373 171.649 32.592 171.253 32.988C170.871 33.384 170.38 33.6993 169.779 33.934C169.192 34.154 168.554 34.264 167.865 34.264ZM168.239 32.416C168.943 32.416 169.544 32.284 170.043 32.02C170.541 31.7413 170.93 31.36 171.209 30.876C171.487 30.392 171.627 29.842 171.627 29.226V28.478L168.195 29.138C167.491 29.27 166.992 29.4827 166.699 29.776C166.42 30.0547 166.281 30.414 166.281 30.854C166.281 31.3527 166.449 31.7413 166.787 32.02C167.139 32.284 167.623 32.416 168.239 32.416ZM180.848 34C179.733 34 178.912 33.7433 178.384 33.23C177.856 32.7167 177.592 31.9173 177.592 30.832V19.546H179.924V30.656C179.924 31.1987 180.041 31.5727 180.276 31.778C180.511 31.9833 180.87 32.086 181.354 32.086H183.026V34H180.848ZM175.81 24.21V22.296H183.026V24.21H175.81ZM189.879 34.264C188.735 34.264 187.745 34.0147 186.909 33.516C186.088 33.0173 185.45 32.306 184.995 31.382C184.555 30.458 184.335 29.38 184.335 28.148C184.335 26.916 184.555 25.8453 184.995 24.936C185.45 24.012 186.088 23.3007 186.909 22.802C187.73 22.2887 188.698 22.032 189.813 22.032C190.869 22.032 191.8 22.2813 192.607 22.78C193.414 23.264 194.037 23.968 194.477 24.892C194.932 25.816 195.159 26.9307 195.159 28.236V28.83H186.755C186.814 29.974 187.114 30.832 187.657 31.404C188.214 31.976 188.962 32.262 189.901 32.262C190.59 32.262 191.162 32.1007 191.617 31.778C192.072 31.4553 192.387 31.0227 192.563 30.48L194.983 30.634C194.675 31.7193 194.066 32.5993 193.157 33.274C192.262 33.934 191.17 34.264 189.879 34.264ZM186.755 27.07H192.695C192.622 26.0287 192.321 25.2587 191.793 24.76C191.28 24.2613 190.62 24.012 189.813 24.012C188.977 24.012 188.288 24.276 187.745 24.804C187.217 25.3173 186.887 26.0727 186.755 27.07Z" fill="white"/>
<path d="M46.375 21.5312H44.6422C44.226 17.0074 42.1347 12.8022 38.7784 9.74045C35.4221 6.67873 31.043 4.98142 26.5 4.98142C21.957 4.98142 17.5779 6.67873 14.2216 9.74045C10.8653 12.8022 8.77401 17.0074 8.35785 21.5312H6.625C6.18574 21.5312 5.76446 21.7057 5.45385 22.0164C5.14325 22.327 4.96875 22.7482 4.96875 23.1875C4.97603 27.1263 6.06 30.9882 8.10343 34.3555C10.1469 37.7228 13.072 40.4673 16.5625 42.2923V43.0625C16.5625 43.941 16.9115 44.7836 17.5327 45.4048C18.1539 46.026 18.9965 46.375 19.875 46.375H33.125C34.0035 46.375 34.8461 46.026 35.4673 45.4048C36.0885 44.7836 36.4375 43.941 36.4375 43.0625V42.2923C39.928 40.4673 42.8531 37.7228 44.8966 34.3555C46.94 30.9882 48.024 27.1263 48.0312 23.1875C48.0312 22.7482 47.8568 22.327 47.5461 22.0164C47.2355 21.7057 46.8143 21.5312 46.375 21.5312ZM41.311 21.5312H30.6655C32.6735 18.5187 35.7114 16.342 39.2096 15.4093C40.3534 17.2698 41.0711 19.3605 41.311 21.5312ZM35.9158 11.6414C36.2953 11.9519 36.659 12.2797 37.0068 12.6248C32.5978 14.1757 28.9544 17.3633 26.8313 21.5271H20.7238C21.759 18.6254 23.6648 16.1141 26.1808 14.3362C28.6969 12.5583 31.7004 11.6005 34.7812 11.5938C35.1601 11.5938 35.539 11.6124 35.9158 11.6414ZM26.5 8.28125C27.8291 8.28213 29.152 8.46108 30.4336 8.81332C27.3125 9.58756 24.4506 11.1709 22.1364 13.4037C19.8221 15.6365 18.1374 18.4398 17.2519 21.5312H11.689C12.0998 17.8893 13.8366 14.5259 16.5681 12.0822C19.2996 9.63858 22.8349 8.28561 26.5 8.28125ZM34.0898 39.75C33.8009 39.8827 33.5563 40.0958 33.3852 40.3638C33.2141 40.6318 33.1238 40.9434 33.125 41.2613V43.0625H19.875V41.2613C19.8762 40.9434 19.7859 40.6318 19.6148 40.3638C19.4437 40.0958 19.1991 39.8827 18.9102 39.75C15.9975 38.4097 13.4887 36.3268 11.6354 33.7104C9.7821 31.094 8.64963 28.0361 8.35164 24.8437H44.6422C44.3448 28.0355 43.2132 31.0929 41.3611 33.7092C39.5089 36.3256 37.0013 38.4088 34.0898 39.75Z" fill="white"/>
</svg>
